<svg xmlns="http://www.w3.org/2000/svg" width="36" height="42" viewBox="0 0 36 42" fill="none">
  <path d="M 7.714 10.5 C 7.714 7.715 8.798 5.045 10.727 3.075 C 12.656 1.106 15.272 0 18 0 C 20.728 0 23.344 1.106 25.273 3.075 C 27.202 5.045 28.286 7.715 28.286 10.5 C 28.286 13.285 27.202 15.955 25.273 17.925 C 23.344 19.894 20.728 21 18 21 C 15.272 21 12.656 19.894 10.727 17.925 C 8.798 15.955 7.714 13.285 7.714 10.5 Z M 0 39.564 C 0 31.484 6.413 24.938 14.328 24.938 L 21.672 24.938 C 29.588 24.938 36 31.484 36 39.564 C 36 40.909 34.931 42 33.613 42 L 2.387 42 C 1.069 42 0 40.909 0 39.564 Z" fill="currentColor" fill-rule="nonzero"></path>
</svg>