<svg xmlns="http://www.w3.org/2000/svg" width="20" height="22" viewBox="0 0 20 22" fill="none">
  <path d="M 9.999 0 C 9.209 0 8.57 0.614 8.57 1.375 L 8.57 2.2 C 5.312 2.836 2.856 5.612 2.856 8.938 L 2.856 9.745 C 2.856 11.765 2.084 13.716 0.691 15.228 L 0.361 15.585 C -0.014 15.989 -0.104 16.569 0.124 17.063 C 0.352 17.557 0.865 17.875 1.428 17.875 L 18.57 17.875 C 19.133 17.875 19.642 17.557 19.874 17.063 C 20.106 16.569 20.012 15.989 19.637 15.585 L 19.307 15.228 C 17.914 13.716 17.142 11.769 17.142 9.745 L 17.142 8.938 C 17.142 5.612 14.686 2.836 11.428 2.2 L 11.428 1.375 C 11.428 0.614 10.789 0 9.999 0 Z M 12.021 21.196 C 12.557 20.681 12.856 19.98 12.856 19.25 L 9.999 19.25 L 7.142 19.25 C 7.142 19.98 7.441 20.681 7.977 21.196 C 8.512 21.712 9.24 22 9.999 22 C 10.758 22 11.486 21.712 12.021 21.196 Z" fill="currentColor" fill-rule="nonzero"></path>
</svg>