<svg xmlns="http://www.w3.org/2000/svg" width="10.005" height="10.005" viewBox="0 0 10.005 10.005" fill="none">
  <path d="M 9.709 1.709 C 10.099 1.318 10.099 0.684 9.709 0.293 C 9.318 -0.098 8.684 -0.098 8.293 0.293 L 5.002 3.587 L 1.709 0.296 C 1.318 -0.095 0.684 -0.095 0.293 0.296 C -0.098 0.687 -0.098 1.321 0.293 1.712 L 3.587 5.002 L 0.296 8.296 C -0.095 8.687 -0.095 9.321 0.296 9.712 C 0.687 10.102 1.321 10.102 1.712 9.712 L 5.002 6.418 L 8.296 9.709 C 8.687 10.099 9.321 10.099 9.712 9.709 C 10.102 9.318 10.102 8.684 9.712 8.293 L 6.418 5.002 L 9.709 1.709 Z" fill="currentColor" fill-rule="nonzero"></path>
</svg>