<svg xmlns="http://www.w3.org/2000/svg" width="20.248" height="18" viewBox="0 0 20.248 18" fill="none">
  <path d="M 20.243 8.982 C 20.243 9.615 19.716 10.111 19.118 10.111 L 17.993 10.111 L 18.018 15.743 C 18.018 15.838 18.011 15.933 18 16.028 L 18 16.594 C 18 17.371 17.371 18 16.594 18 L 16.031 18 C 15.993 18 15.954 18 15.915 17.996 C 15.866 18 15.817 18 15.768 18 L 14.625 18 L 13.781 18 C 13.004 18 12.375 17.371 12.375 16.594 L 12.375 15.75 L 12.375 13.5 C 12.375 12.878 11.872 12.375 11.25 12.375 L 9 12.375 C 8.378 12.375 7.875 12.878 7.875 13.5 L 7.875 15.75 L 7.875 16.594 C 7.875 17.371 7.246 18 6.469 18 L 5.625 18 L 4.504 18 C 4.451 18 4.398 17.996 4.345 17.993 C 4.303 17.996 4.261 18 4.219 18 L 3.656 18 C 2.879 18 2.25 17.371 2.25 16.594 L 2.25 12.656 C 2.25 12.625 2.25 12.589 2.254 12.558 L 2.254 10.111 L 1.125 10.111 C 0.492 10.111 0 9.619 0 8.982 C 0 8.666 0.105 8.385 0.352 8.139 L 9.366 0.281 C 9.612 0.035 9.893 0 10.139 0 C 10.385 0 10.666 0.07 10.877 0.246 L 19.856 8.139 C 20.137 8.385 20.278 8.666 20.243 8.982 Z" fill="currentColor" fill-rule="nonzero"></path>
</svg>