<svg xmlns="http://www.w3.org/2000/svg" width="31.250" height="25" viewBox="0 0 31.250 25" fill="none">
  <path d="M 7.031 0 C 8.067 0 9.061 0.412 9.793 1.144 C 10.526 1.877 10.938 2.87 10.938 3.906 C 10.938 4.942 10.526 5.936 9.793 6.668 C 9.061 7.401 8.067 7.813 7.031 7.813 C 5.995 7.813 5.002 7.401 4.269 6.668 C 3.537 5.936 3.125 4.942 3.125 3.906 C 3.125 2.87 3.537 1.877 4.269 1.144 C 5.002 0.412 5.995 0 7.031 0 Z M 25 0 C 26.036 0 27.03 0.412 27.762 1.144 C 28.495 1.877 28.906 2.87 28.906 3.906 C 28.906 4.942 28.495 5.936 27.762 6.668 C 27.03 7.401 26.036 7.813 25 7.813 C 23.964 7.813 22.97 7.401 22.238 6.668 C 21.505 5.936 21.094 4.942 21.094 3.906 C 21.094 2.87 21.505 1.877 22.238 1.144 C 22.97 0.412 23.964 0 25 0 Z M 0 14.585 C 0 11.709 2.334 9.375 5.21 9.375 L 7.295 9.375 C 8.071 9.375 8.809 9.546 9.473 9.849 C 9.409 10.2 9.38 10.566 9.38 10.938 C 9.38 12.803 10.2 14.477 11.494 15.625 C 11.484 15.625 11.475 15.625 11.46 15.625 L 1.04 15.625 C 0.469 15.625 0 15.156 0 14.585 Z M 19.79 15.625 C 19.78 15.625 19.771 15.625 19.756 15.625 C 21.055 14.477 21.87 12.803 21.87 10.938 C 21.87 10.566 21.836 10.205 21.777 9.849 C 22.441 9.541 23.179 9.375 23.955 9.375 L 26.04 9.375 C 28.916 9.375 31.25 11.709 31.25 14.585 C 31.25 15.161 30.781 15.625 30.21 15.625 L 19.79 15.625 Z M 10.938 10.938 C 10.938 9.694 11.431 8.502 12.31 7.623 C 13.189 6.744 14.382 6.25 15.625 6.25 C 16.868 6.25 18.06 6.744 18.94 7.623 C 19.819 8.502 20.313 9.694 20.313 10.938 C 20.313 12.181 19.819 13.373 18.94 14.252 C 18.06 15.131 16.868 15.625 15.625 15.625 C 14.382 15.625 13.189 15.131 12.31 14.252 C 11.431 13.373 10.938 12.181 10.938 10.938 Z M 6.25 23.696 C 6.25 20.103 9.165 17.188 12.759 17.188 L 18.491 17.188 C 22.085 17.188 25 20.103 25 23.696 C 25 24.414 24.419 25 23.696 25 L 7.554 25 C 6.836 25 6.25 24.419 6.25 23.696 Z" fill="currentColor" fill-rule="nonzero"></path>
</svg>