<svg xmlns="http://www.w3.org/2000/svg" width="9.629" height="14" viewBox="0 0 9.629 14" fill="none">
  <path d="M 6.565 1.75 C 6.565 1.286 6.381 0.841 6.052 0.513 C 5.724 0.184 5.279 0 4.815 0 C 4.351 0 3.906 0.184 3.578 0.513 C 3.249 0.841 3.065 1.286 3.065 1.75 C 3.065 2.214 3.249 2.659 3.578 2.987 C 3.906 3.316 4.351 3.5 4.815 3.5 C 5.279 3.5 5.724 3.316 6.052 2.987 C 6.381 2.659 6.565 2.214 6.565 1.75 Z M 3.746 4.629 C 3.098 4.4 2.529 3.965 2.138 3.377 L 1.605 2.576 C 1.337 2.174 0.796 2.067 0.391 2.335 C -0.014 2.603 -0.12 3.147 0.147 3.549 L 0.683 4.348 C 1.178 5.089 1.854 5.671 2.628 6.054 L 2.628 13.125 C 2.628 13.609 3.019 14 3.503 14 C 3.987 14 4.378 13.609 4.378 13.125 L 4.378 10.5 L 5.253 10.5 L 5.253 13.125 C 5.253 13.609 5.644 14 6.128 14 C 6.612 14 7.003 13.609 7.003 13.125 L 7.003 6.059 C 7.798 5.671 8.49 5.07 8.99 4.304 L 9.488 3.541 C 9.751 3.136 9.636 2.595 9.231 2.33 C 8.826 2.064 8.285 2.179 8.02 2.587 L 7.522 3.347 C 6.926 4.26 5.912 4.813 4.821 4.813 C 4.476 4.813 4.14 4.758 3.82 4.654 C 3.795 4.646 3.771 4.635 3.746 4.629 Z" fill="currentColor" fill-rule="nonzero"></path>
</svg>