<svg xmlns="http://www.w3.org/2000/svg" width="17.500" height="14" viewBox="0 0 17.500 14" fill="none">
  <path d="M 5.25 2.625 C 5.598 2.625 5.932 2.487 6.178 2.241 C 6.424 1.994 6.563 1.661 6.563 1.313 C 6.563 0.964 6.424 0.631 6.178 0.384 C 5.932 0.138 5.598 0 5.25 0 C 4.902 0 4.568 0.138 4.322 0.384 C 4.076 0.631 3.938 0.964 3.938 1.313 C 3.938 1.661 4.076 1.994 4.322 2.241 C 4.568 2.487 4.902 2.625 5.25 2.625 Z M 5.031 12.25 L 5.031 9.625 L 5.469 9.625 L 5.469 12.25 L 5.031 12.25 Z M 3.281 12.25 L 0.875 12.25 C 0.391 12.25 0 12.641 0 13.125 C 0 13.609 0.391 14 0.875 14 L 4.156 14 L 6.344 14 L 16.625 14 C 17.109 14 17.5 13.609 17.5 13.125 C 17.5 12.641 17.109 12.25 16.625 12.25 L 7.219 12.25 L 7.219 7.025 L 8.001 8.323 C 8.25 8.736 8.788 8.87 9.201 8.621 C 9.614 8.373 9.748 7.834 9.499 7.421 L 7.905 4.769 C 7.429 3.979 6.576 3.495 5.655 3.495 L 4.843 3.495 C 3.921 3.495 3.068 3.979 2.592 4.769 L 0.998 7.421 C 0.749 7.834 0.883 8.373 1.296 8.621 C 1.709 8.87 2.248 8.736 2.496 8.323 L 3.281 7.025 L 3.281 12.25 Z M 16.368 3.32 L 14.18 1.132 C 13.839 0.79 13.284 0.79 12.942 1.132 L 10.754 3.32 C 10.412 3.661 10.412 4.216 10.754 4.558 C 11.096 4.9 11.651 4.9 11.993 4.558 L 12.688 3.864 L 12.688 10.5 C 12.688 10.984 13.079 11.375 13.563 11.375 C 14.046 11.375 14.438 10.984 14.438 10.5 L 14.438 3.864 L 15.132 4.558 C 15.474 4.9 16.029 4.9 16.371 4.558 C 16.712 4.216 16.712 3.661 16.371 3.32 L 16.368 3.32 Z" fill="currentColor" fill-rule="nonzero"></path>
</svg>