<svg xmlns="http://www.w3.org/2000/svg" width="10.500" height="12" viewBox="0 0 10.500 12" fill="none">
  <path d="M 5.25 0 C 4.835 0 4.5 0.335 4.5 0.75 L 4.5 1.2 C 2.789 1.547 1.5 3.061 1.5 4.875 L 1.5 5.316 C 1.5 6.417 1.094 7.481 0.363 8.306 L 0.189 8.501 C -0.007 8.721 -0.054 9.038 0.065 9.307 C 0.185 9.577 0.454 9.75 0.75 9.75 L 9.75 9.75 C 10.045 9.75 10.312 9.577 10.434 9.307 C 10.556 9.038 10.507 8.721 10.31 8.501 L 10.136 8.306 C 9.405 7.481 9 6.42 9 5.316 L 9 4.875 C 9 3.061 7.71 1.547 6 1.2 L 6 0.75 C 6 0.335 5.664 0 5.25 0 Z M 6.311 11.562 C 6.593 11.28 6.75 10.898 6.75 10.5 L 5.25 10.5 L 3.75 10.5 C 3.75 10.898 3.907 11.28 4.188 11.562 C 4.469 11.843 4.851 12 5.25 12 C 5.648 12 6.03 11.843 6.311 11.562 Z" fill="currentColor" fill-rule="nonzero"></path>
</svg>