<svg xmlns="http://www.w3.org/2000/svg" width="15.999" height="16.002" viewBox="0 0 15.999 16.002" fill="none">
  <path d="M 13 6.5 C 13 7.934 12.534 9.259 11.75 10.334 L 15.706 14.294 C 16.097 14.684 16.097 15.319 15.706 15.709 C 15.316 16.1 14.681 16.1 14.291 15.709 L 10.334 11.75 C 9.259 12.538 7.934 13 6.5 13 C 2.909 13 0 10.091 0 6.5 C 0 2.909 2.909 0 6.5 0 C 10.091 0 13 2.909 13 6.5 Z M 6.5 11 C 7.091 11 7.676 10.884 8.222 10.657 C 8.768 10.431 9.264 10.1 9.682 9.682 C 10.1 9.264 10.431 8.768 10.657 8.222 C 10.884 7.676 11 7.091 11 6.5 C 11 5.909 10.884 5.324 10.657 4.778 C 10.431 4.232 10.1 3.736 9.682 3.318 C 9.264 2.9 8.768 2.569 8.222 2.343 C 7.676 2.116 7.091 2 6.5 2 C 5.909 2 5.324 2.116 4.778 2.343 C 4.232 2.569 3.736 2.9 3.318 3.318 C 2.9 3.736 2.569 4.232 2.343 4.778 C 2.116 5.324 2 5.909 2 6.5 C 2 7.091 2.116 7.676 2.343 8.222 C 2.569 8.768 2.9 9.264 3.318 9.682 C 3.736 10.1 4.232 10.431 4.778 10.657 C 5.324 10.884 5.909 11 6.5 11 Z" fill="currentColor" fill-rule="nonzero"></path>
</svg>